# xmcd CD database file
#
# Track frame offsets:
#	150
#	23217
#	41447
#	69474
#	90287
#	107514
#	128607
#	152301
#	166618
#	180469
#	200215
#	229135
#
# Disc length: 3253 seconds
#
# Revision: 0
# Processed by: cddbd v1.5.2PL0 Copyright (c) Steve Scherf et al.
# Submitted via: CDex 1.70beta2
#
DISCID=850cb30c
DTITLE=Ju Ju Song - Jazz Meets Hymns
DYEAR=2005
DGENRE=Jazz
TTITLE0=What a Friend We Have in Jesus
TTITLE1=Nothing But the Blood
TTITLE2=Song in My Heart
TTITLE3=My Jesus, I Love Thee
TTITLE4=It is Well with My Soul
TTITLE5=Where You There?
TTITLE6=I Surrender All
TTITLE7=His Love
TTITLE8=Savior, Like a Shepherd Lead Us
TTITLE9=Sweet Hour of Prayer
TTITLE10=Prayer (The Day's End)
TTITLE11=In the Sweet By and By
EXTD=YEAR: 2005
EXTT0=
EXTT1=
EXTT2=
EXTT3=
EXTT4=
EXTT5=
EXTT6=
EXTT7=
EXTT8=
EXTT9=
EXTT10=
EXTT11=
PLAYORDER=
